#!OML:ASF E:\inclinewalkrobotboard\Project 1\Capture day 1\Session 1\subject1.ASF
:FULLY-SPECIFIED
:DEGREES
449
root 8.9832 17.1004 -9.42027 -168.76 2.76049 181.056
lowerback -3.81866 -4.84094 -11.3769
upperback 3.10987 -5.9276 3.90654
thorax 7.11251 -3.56585 9.9787
lowerneck -13.9703 -2.64095 -1.92313
upperneck 30.0991 -3.40097 6.24297
head 12.4217 -0.275291 2.35644
rclavicle 4.71368e-014 -1.54058e-014
rhumerus -77.8905 -40.9835 -22.7427
rradius 13.5315
rwrist 53.9463
rhand -5.53571 -31.5795
rfingers 7.12502
rthumb 20.2786 -60.5408
lclavicle 4.71368e-014 -1.54058e-014
lhumerus -5.93799 -15.5335 82.3967
lradius 20.6061
lwrist -21.7
lhand -26.4653 -21.9985
lfingers 7.12502
lthumb 0.0963132 7.98119
rfemur -28.9869 5.51701 -0.161252
rtibia 12.5605
rfoot -4.99631 -7.13763
rtoes -35.2065
lfemur -2.82471 -10.0961 -17.7981
ltibia 10.0645
lfoot -22.9803 11.9616
ltoes -67.7682
450
root 9.05344 17.0681 -9.58288 -168.972 2.84726 180.276
lowerback -3.87214 -4.95217 -11.6055
upperback 3.28742 -6.04092 3.81315
thorax 7.38755 -3.65274 9.97851
lowerneck -14.3852 -2.71178 -1.83128
upperneck 30.1569 -3.51062 6.04192
head 12.5322 -0.345838 2.24597
rclavicle 1.97325e-014 4.63417e-015
rhumerus -79.8311 -41.7955 -19.8219
rradius 13.3131
rwrist 55.895
rhand -5.58205 -31.9037
rfingers 7.12502
rthumb 20.2341 -60.8698
lclavicle 1.97325e-014 4.63417e-015
lhumerus -5.40121 -16.0979 82.52
lradius 20.5693
lwrist -21.3727
lhand -26.2011 -22.0406
lfingers 7.12502
lthumb 0.351523 7.93888
rfemur -28.9788 5.23761 -0.741772
rtibia 12.1114
rfoot -4.18292 -6.65628
rtoes -35.0774
lfemur -1.77134 -10.115 -18.7587
ltibia 9.89488
lfoot -23.4313 12.0717
ltoes -68.0237
451
root 9.13745 17.0327 -9.73802 -168.933 2.83041 179.857
lowerback -3.91488 -5.05511 -11.554
upperback 3.32098 -6.17916 3.89682
thorax 7.4919 -3.72834 10.0164
lowerneck -13.9 -2.55485 -1.80964
upperneck 29.8613 -3.19618 5.75015
head 12.2859 -0.261069 2.16575
rclavicle 2.04997e-014 -1.36167e-014
rhumerus -81.234 -42.2557 -17.7084
rradius 13.1981
rwrist 56.9475
rhand -5.84532 -31.8437
rfingers 7.12502
rthumb 19.981 -60.8364
lclavicle 2.04997e-014 -1.36167e-014
lhumerus -5.12165 -16.4306 82.797
lradius 20.617
lwrist -21.2301
lhand -25.1208 -22.1508
lfingers 7.12502
lthumb 1.39494 7.82439
rfemur -29.6296 5.64408 -1.07484
rtibia 12.5376
rfoot -4.07781 -7.10992
rtoes -36.157
lfemur -1.15422 -9.90386 -19.0197
ltibia 9.87472
lfoot -23.8254 12.0284
ltoes -68.3389
452
root 9.23222 16.9987 -9.87266 -168.679 2.53402 179.514
lowerback -3.64292 -5.21587 -11.499
upperback 3.13335 -6.44918 4.13886
thorax 7.22696 -3.84518 10.2415
lowerneck -13.6026 -2.46315 -1.92634
upperneck 29.6003 -2.98406 5.55255
head 12.1057 -0.223537 2.13163
rclavicle -2.55935e-014 5.70512e-014
rhumerus -81.6667 -42.3068 -16.8289
rradius 13.1631
rwrist 56.8051
rhand -6.29877 -31.6071
rfingers 7.12502
rthumb 19.5451 -60.6446
lclavicle -2.55935e-014 5.70512e-014
lhumerus -5.0349 -16.4556 83.2397
lradius 20.7239
lwrist -21.2753
lhand -24.627 -22.3975
lfingers 7.12502
lthumb 1.87177 7.57406
rfemur -30.1667 5.47619 -1.27807
rtibia 12.4287
rfoot -3.63933 -7.55474
rtoes -36.903
lfemur -1.14018 -9.93163 -18.9617
ltibia 10.1838
lfoot -24.2362 11.8507
ltoes -68.4319
453
root 9.33326 16.9677 -9.99927 -168.314 2.35792 179.35
lowerback -3.29565 -5.23253 -11.1476
upperback 2.89735 -6.54628 4.36215
thorax 6.77715 -3.84737 10.3109
lowerneck -13.1722 -2.46631 -2.01782
upperneck 29.2036 -2.93104 5.39527
head 11.8542 -0.252712 2.08245
rclavicle -3.67752e-014 -4.79071e-014
rhumerus -82.4148 -42.4422 -15.7076
rradius 13.1775
rwrist 56.8368
rhand -6.54807 -31.4699
rfingers 7.12502
rthumb 19.3054 -60.5316
lclavicle -3.67752e-014 -4.79071e-014
lhumerus -4.89628 -16.9402 83.5677
lradius 20.834
lwrist -21.3486
lhand -24.7004 -22.5434
lfingers 7.12502
lthumb 1.80092 7.42877
rfemur -30.8903 5.68607 -1.35476
rtibia 12.4059
rfoot -3.33047 -8.17339
rtoes -37.1599
lfemur -1.34168 -10.0632 -18.6106
ltibia 10.5856
lfoot -24.7889 11.7054
ltoes -68.2562
454
root 9.43849 16.9388 -10.1278 -167.731 2.45232 179.923
lowerback -3.2216 -5.11437 -9.92715
upperback 2.70463 -6.46914 4.68914
thorax 6.38731 -3.72828 9.99429
lowerneck -13.1801 -2.53518 -1.94672
upperneck 29.1278 -2.98787 5.13977
head 11.8224 -0.310418 1.96278
rclavicle 1.27222e-014 -7.79236e-014
rhumerus -83.5874 -42.7892 -14.0178
rradius 13.1359
rwrist 57.6013
rhand -6.50358 -31.6154
rfingers 7.12502
rthumb 19.3482 -60.6729
lclavicle 1.27222e-014 -7.79236e-014
lhumerus -4.73223 -17.4643 83.7499
lradius 20.931
lwrist -21.5529
lhand -24.561 -22.5965
lfingers 7.12502
lthumb 1.9356 7.37448
rfemur -32.0381 6.59387 -0.689773
rtibia 12.6578
rfoot -3.28481 -8.84441
rtoes -35.508
lfemur -1.70036 -10.0795 -17.3432
ltibia 10.9789
lfoot -25.3752 11.9365
ltoes -68.2418
